<svg xmlns="http://www.w3.org/2000/svg" width="1200" height="1200" viewBox="0 0 1200 1200">
  <title>Eye-catch source, square 1:1</title>

  <defs>
    <linearGradient id="field" x1="0" y1="0" x2="1" y2="1">
      <stop offset="0" stop-color="#e8590c" />
      <stop offset="1" stop-color="#0b7285" />
    </linearGradient>
    <pattern id="weave" width="80" height="80" patternUnits="userSpaceOnUse">
      <rect width="40" height="40" fill="#000000" opacity="0.1" />
      <rect x="40" y="40" width="40" height="40" fill="#000000" opacity="0.1" />
    </pattern>
  </defs>

  <rect width="1200" height="1200" fill="url(#field)" />
  <g fill="#ffffff" opacity="0.3">
    <path d="M 600 600 L 2297.1 600 L 2254.5 977.6 Z" />
    <path d="M 600 600 L 2129 1336.3 L 1926.8 1658.1 Z" />
    <path d="M 600 600 L 1658.1 1926.8 L 1336.3 2129 Z" />
    <path d="M 600 600 L 977.6 2254.5 L 600 2297.1 Z" />
    <path d="M 600 600 L 222.4 2254.5 L -136.3 2129 Z" />
    <path d="M 600 600 L -458.1 1926.8 L -726.8 1658.1 Z" />
    <path d="M 600 600 L -929 1336.3 L -1054.5 977.6 Z" />
    <path d="M 600 600 L -1097.1 600 L -1054.5 222.4 Z" />
    <path d="M 600 600 L -929 -136.3 L -726.8 -458.1 Z" />
    <path d="M 600 600 L -458.1 -726.8 L -136.3 -929 Z" />
    <path d="M 600 600 L 222.4 -1054.5 L 600 -1097.1 Z" />
    <path d="M 600 600 L 977.6 -1054.5 L 1336.3 -929 Z" />
    <path d="M 600 600 L 1658.1 -726.8 L 1926.8 -458.1 Z" />
    <path d="M 600 600 L 2129 -136.3 L 2254.5 222.4 Z" />
  </g>
  <rect width="1200" height="1200" fill="url(#weave)" />
  <!-- registration marks, so a crop can be told from the whole -->
  <g fill="none" stroke="#ffffff" stroke-width="10" opacity="0.85">
    <path d="M 60 132 L 60 60 L 132 60" />
    <path d="M 1140 132 L 1140 60 L 1068 60" />
    <path d="M 60 1068 L 60 1140 L 132 1140" />
    <path d="M 1140 1068 L 1140 1140 L 1068 1140" />
  </g>
  <g fill="none" stroke="#ffffff" stroke-width="6" opacity="0.7">
    <line x1="540" y1="600" x2="660" y2="600" />
    <line x1="600" y1="540" x2="600" y2="660" />
    <circle cx="600" cy="600" r="60" />
  </g>
</svg>
